PathFileType	4	(X/Y/Z)	Kaydara	
DataRate	CameraRate	NumFrames	NumMarkers	Units	OrigDataRate	OrigDataStartFrame	OrigNumFrames	
120.00	120.00	4	72	mm	120.00	164	261	
Frame#	Time	Hips			RightUpLeg			RightLeg			RightFoot			RightFoot_End			LeftUpLeg			LeftLeg			LeftFoot			LeftFoot_End			Spine			Spine1			Spine2			Spine3			Neck			Head			Head_End			RightShoulder			RightArm			RightForeArm			RightHand			RightHandThumb1			RightHandThumb2			RightHandThumb3			RightHandThumb3_End			RightInHandIndex			RightHandIndex1			RightHandIndex2			RightHandIndex3			RightHandIndex3_End			RightInHandMiddle			RightHandMiddle1			RightHandMiddle2			RightHandMiddle3			RightHandMiddle3_End			RightInHandRing			RightHandRing1			RightHandRing2			RightHandRing3			RightHandRing3_End			RightInHandPinky			RightHandPinky1			RightHandPinky2			RightHandPinky3			RightHandPinky3_End			LeftShoulder			LeftArm			LeftForeArm			LeftHand			LeftHandThumb1			LeftHandThumb2			LeftHandThumb3			LeftHandThumb3_End			LeftInHandIndex			LeftHandIndex1			LeftHandIndex2			LeftHandIndex3			LeftHandIndex3_End			LeftInHandMiddle			LeftHandMiddle1			LeftHandMiddle2			LeftHandMiddle3			LeftHandMiddle3_End			LeftInHandRing			LeftHandRing1			LeftHandRing2			LeftHandRing3			LeftHandRing3_End			LeftInHandPinky			LeftHandPinky1			LeftHandPinky2			LeftHandPinky3			LeftHandPinky3_End			
		X1	Y1	Z1	X2	Y2	Z2	X3	Y3	Z3	X4	Y4	Z4	X5	Y5	Z5	X6	Y6	Z6	X7	Y7	Z7	X8	Y8	Z8	X9	Y9	Z9	X10	Y10	Z10	X11	Y11	Z11	X12	Y12	Z12	X13	Y13	Z13	X14	Y14	Z14	X15	Y15	Z15	X16	Y16	Z16	X17	Y17	Z17	X18	Y18	Z18	X19	Y19	Z19	X20	Y20	Z20	X21	Y21	Z21	X22	Y22	Z22	X23	Y23	Z23	X24	Y24	Z24	X25	Y25	Z25	X26	Y26	Z26	X27	Y27	Z27	X28	Y28	Z28	X29	Y29	Z29	X30	Y30	Z30	X31	Y31	Z31	X32	Y32	Z32	X33	Y33	Z33	X34	Y34	Z34	X35	Y35	Z35	X36	Y36	Z36	X37	Y37	Z37	X38	Y38	Z38	X39	Y39	Z39	X40	Y40	Z40	X41	Y41	Z41	X42	Y42	Z42	X43	Y43	Z43	X44	Y44	Z44	X45	Y45	Z45	X46	Y46	Z46	X47	Y47	Z47	X48	Y48	Z48	X49	Y49	Z49	X50	Y50	Z50	X51	Y51	Z51	X52	Y52	Z52	X53	Y53	Z53	X54	Y54	Z54	X55	Y55	Z55	X56	Y56	Z56	X57	Y57	Z57	X58	Y58	Z58	X59	Y59	Z59	X60	Y60	Z60	X61	Y61	Z61	X62	Y62	Z62	X63	Y63	Z63	X64	Y64	Z64	X65	Y65	Z65	X66	Y66	Z66	X67	Y67	Z67	X68	Y68	Z68	X69	Y69	Z69	X70	Y70	Z70	X71	Y71	Z71	X72	Y72	Z72	

164	1.358	4081.203	893.81699	129.612	4136.129804599974	881.3587508986634	86.81408608737819	4034.054798064192	478.3587309641765	49.26870629412796	4077.096770830031	115.61195546244842	-17.774923879613446	3984.286382807311	32.229866867072566	122.14616448234123	4037.309872258166	879.8121309166947	186.6285735582968	3929.540644815056	491.6675641096035	299.34094867580626	3813.072274988874	90.28096901917611	429.45993062525633	3671.6786633169763	34.55849732731578	315.8565979899679	4032.368069129827	1015.8148270457376	73.78238908640344	3979.4228287764186	1080.7001107496976	24.720136112903596	3920.188186943394	1142.929757975322	-28.554855491505286	3858.1839764767496	1193.8896698024444	-83.0982659612908	3790.3896842642143	1249.2196290313595	-138.79858332744385	3720.5389816660177	1294.1128196481297	-181.96582402731568	3581.1488832429773	1370.6789002802502	-191.38821417825002	3826.9899650343145	1236.090512501429	-132.76173282100655	3878.8695600157635	1253.916562470237	-178.52060633469424	3978.5585502189906	1095.175202107749	-204.15490824759613	4088.0028458050824	1032.0815026292805	-263.09128158194125	4098.359400233158	1052.6550525400803	-275.85653223110097	4100.742302207927	1058.2978364074088	-296.0279212838501	4103.09282522735	1058.575329088619	-309.6105997712123	4105.643542503874	1055.682343179392	-320.5363738932525	4103.041745100564	1042.0453740983248	-274.6690822071751	4123.1537380991995	1041.1511876128955	-293.64111681505796	4130.446821520385	1037.3523747219187	-310.54494010429664	4129.178141136247	1036.291424112752	-321.99196558645696	4124.213898704359	1036.2906861825077	-332.09932699759884	4103.902724499101	1031.9922648562917	-272.92082051939445	4123.986974029061	1025.6832771742984	-290.47887885502263	4131.985172239783	1020.2104647005767	-308.6367146687538	4130.473733048111	1018.2934164942412	-322.30912399064533	4125.051270802651	1017.9829151871965	-333.301315900326	4104.074357770236	1024.920764493524	-271.16469279830017	4122.446904618639	1013.152071215271	-285.26797699126615	4129.426544250987	1007.0349047463734	-300.77319737164	4127.973078491876	1004.4704083382911	-313.79073885772584	4122.876694450805	1003.8394698315977	-324.045337166863	4103.086236624434	1016.7317645058312	-268.8812599941658	4119.591716813031	1000.9163381194661	-280.29147859202317	4125.113140035323	993.9676585993102	-292.1451211151795	4124.020270167987	991.1053171497483	-301.3681378353156	4119.486876066715	989.975624264447	-310.2954868629381	3798.6876407144878	1224.4925662892672	-107.94491056359114	3757.884829872873	1173.059013713783	-71.27016819261104	3904.291449578725	1080.8100107852404	-127.60571680026328	4042.621822859273	1030.2688307258766	-186.26433161251356	4052.7762928629	1051.6062591087582	-194.35866461188166	4072.3974940246435	1057.4014293420591	-187.94268335358618	4087.4599831656674	1057.9036309520197	-182.76597697598385	4101.213114606568	1055.2994312614742	-177.8441745753345	4058.437725313744	1041.6110176176182	-193.941970171633	4089.019961591574	1042.7467083351485	-197.06637283093193	4111.812143239507	1039.7235661929258	-191.86469238613267	4123.298746478911	1038.5411286650942	-184.91692118748804	4130.996254561621	1038.0326063059174	-176.66112292011456	4061.248150343868	1031.7795290333002	-191.55530743717168	4092.596872700545	1027.5704798998786	-193.31391043314426	4117.741191354477	1022.965941430851	-187.30358385511857	4131.730603652379	1020.9128130486755	-178.76093984919368	4140.216869669776	1020.0518026066626	-169.64961611931074	4062.4531962460233	1024.8204501898676	-189.86028636899624	4091.593672577533	1015.0536861548707	-190.1723341448677	4113.739713823561	1009.7122630092781	-184.58850269825942	4127.3558324098885	1007.0265671781556	-176.16511491540172	4135.392975299198	1005.8827815738085	-167.5112934651778	4062.9569150107254	1016.6419795975983	-187.25775558332913	4090.0044477772612	1002.6955115633856	-186.17838244860715	4107.970169784206	996.3888010225996	-181.16661518807936	4118.01404917022	993.4481082344527	-174.76112610989668	4125.198234605706	991.8699001995806	-166.9447878504213
165	1.367	4081.203	893.81699	129.612	4135.187442411484	880.7585234059569	86.52471598723781	4033.443001306935	477.7431981883311	48.989153831693415	4077.960493422181	115.63913344611015	-19.510228910162265	3985.8695421584475	31.94375796474347	120.59810224560171	4038.2213566086357	880.4005918080643	186.9245815563312	3930.596007409631	492.172285688615	299.47260195795985	3814.3924202652174	90.50538626263192	428.9493887028457	3673.1401613517564	34.678988770482356	315.1846673798995	4032.6246440696355	1015.8781004265193	73.67812602947248	3979.753511518068	1080.8512940699572	24.65073023654691	3920.5765977572937	1143.190918785103	-28.55922727510796	3858.588459268988	1194.283043824365	-82.99222745796719	3790.823800091599	1249.746336885044	-138.59312921916043	3721.081469004166	1294.8242826791773	-181.7655957034684	3581.708482788434	1371.4103602326954	-191.147649493934	3827.1457356717256	1236.2358930002074	-132.59072724875963	3877.845545046386	1253.1210321789029	-177.84825071016763	3976.9230051434556	1095.653075789778	-201.10422027028798	4083.691002736416	1032.5527534174494	-257.12988051666065	4093.6586400919787	1052.9827014322195	-269.48986271170946	4095.933566834389	1058.6610514864126	-289.0463825134031	4098.235988336042	1058.996496048148	-302.1873859762053	4100.769782223228	1056.180211046032	-312.73342152183216	4098.376246084226	1042.469732302028	-268.2261432804935	4118.1616060948645	1041.6662547400076	-286.3722200246228	4125.367200912805	1037.9790210042152	-302.6519036610546	4124.124149730714	1036.9799668523842	-313.7588832631015	4119.235097754253	1037.0254205807505	-323.61715518142034	4099.328926349976	1032.506024729565	-266.46761827843875	4119.144149405689	1026.3338544412618	-283.21452367448086	4127.060213494862	1020.9943603314058	-300.69256247257664	4125.586094308691	1019.1575363712299	-313.95532586471217	4120.2490141560365	1018.9002738801612	-324.67526270181446	4099.572374203667	1025.4951144512524	-264.7255647705436	4117.762333798074	1013.9008817073463	-278.1148393738939	4124.684451988365	1007.9115209163928	-293.0301130003591	4123.274454390599	1005.4305704787756	-305.6538811540046	4118.261891553849	1004.8526103656503	-315.6531376604445	4098.686786000797	1017.3753447574941	-262.4803234376894	4115.083516798834	1001.7617799322376	-273.2597695533072	4120.581631358767	994.9327894087234	-284.6481201843696	4119.531473366731	992.1397780044534	-293.58736009461694	4115.078665563856	991.061844276805	-302.2904985586957	3799.37566343821	1225.3239634173124	-107.75336485384982	3759.4906802087867	1175.3869017715533	-70.98167498520573	3903.924186726725	1082.1656731228404	-125.1967723988974	4040.8076659182148	1031.6363589062926	-182.03115076452468	4050.554892906453	1052.7063948503408	-190.07300514763236	4069.8337987373534	1058.331840060954	-183.88692639852485	4084.6782415675784	1058.7377019572816	-178.85485246499016	4098.2669874819	1056.0718851800366	-174.0403884211477	4056.2450346307764	1042.7579221927858	-189.56057131518818	4086.3535960746162	1043.668024588173	-192.55467206337212	4108.85245479926	1040.5255388194348	-187.45174653109916	4120.196824853185	1039.2892685734632	-180.69206537694123	4127.803673032014	1038.7499245787724	-172.67740716506233	4059.128960829769	1032.995520147977	-187.14536772874905	4090.0554213496134	1028.6037979620514	-188.76138688506455	4114.890946292911	1023.87892584767	-182.85571470415832	4128.714172890879	1021.7655982489497	-174.53850373032586	4137.103871965128	1020.8731718369506	-165.6903065134256	4060.3976924569156	1026.0907241324112	-185.4314569076249	4089.2140564423535	1016.206536710354	-185.59332391192862	4111.103150438591	1010.7706352086209	-180.09778209064322	4124.56544791941	1008.0323980009094	-171.89028788625612	4132.514863973109	1006.861691669441	-163.48313516924796	4060.991135677642	1017.9835909680319	-182.82708349062486	4087.7954487746247	1003.9723766132197	-181.60190694554365	4105.575863333047	997.606756811423	-176.6569412506131	4115.517436464948	994.6358406633857	-170.4070401502679	4122.629602045304	993.0384477702574	-162.80812509202053
166	1.375	4081.203	893.81699	129.612	4134.20690106524	880.1359437913245	86.21747320305016	4032.77998241539	477.10453255308136	48.76212291487047	4078.88945804107	115.66766439612545	-21.25259845235176	3987.5366737207623	31.6292787519734	119.03104525841123	4039.170296625072	881.0097274269249	187.23636902412952	3931.6759037296015	492.7102357911802	299.6492376441237	3815.8102316995246	90.71558279749341	428.4505269563224	3674.57980672157	34.84823450444533	314.6265882952061	4032.8900237597386	1015.9481667191849	73.58119133607173	3980.095884800352	1081.0170852888036	24.595759189233156	3920.978335932169	1143.4750930248513	-28.54132029390813	3859.0053597646634	1194.7070607326377	-82.85576824542686	3791.271597300047	1250.3123270871392	-138.350413807528	3721.6516275219446	1295.5903110674353	-181.5404426612801	3582.310536037601	1372.214918633971	-190.90918785493446	3827.306586412819	1236.3979952227035	-132.39525867596703	3876.8473636509343	1252.4239959102097	-177.11734813408907	3975.4039336975734	1096.3097624786594	-197.9306414774589	4079.270395381917	1032.9984731820066	-250.95764763462208	4088.8245365537387	1053.2829721577193	-262.87685812996205	4090.996453441307	1058.995879793704	-281.7846828009391	4093.2572392713937	1059.3898301904749	-294.4607671043374	4095.7820731822517	1056.6517831262697	-304.607953181342	4093.5835337650897	1042.8713785854416	-261.5340224249682	4113.0356059037085	1042.166142608394	-278.79975707437615	4120.161886256007	1038.5939587922003	-294.42123944567123	4118.954641662565	1037.6563787515477	-305.1730405080955	4114.152640755211	1037.7459338535743	-314.77377370631996	4094.6369362711534	1033.000143858219	-259.7681556265649	4114.1815177834915	1026.9737997506722	-275.65244289713337	4122.025595570744	1021.7717898697123	-292.4140833971658	4120.601664223901	1020.014862200014	-305.2492155677864	4115.36323015464	1019.8086397413643	-315.68778489164583	4094.95863056904	1026.0518288214928	-258.04358118452456	4112.9698118314545	1014.6419522601366	-270.67554033544934	4119.844512333599	1008.7844006187174	-284.96962638927965	4118.491063436602	1006.3868773694811	-297.18262400400477	4113.575110048713	1005.859922110665	-306.91813673617867	4094.1840610188974	1018.0031640422329	-255.84240305849397	4110.48039027082	1002.6017881041952	-265.9548007886413	4115.965235059173	995.8962302856329	-276.8540631546733	4114.968272191877	993.1727223520276	-285.49771852293645	4110.607921595568	992.1449491775802	-293.9695433034084	3800.0844566220085	1226.2116256098436	-107.51529895711396	3761.1656698193865	1177.873770249788	-70.6070831424273	3903.651181288309	1083.8073153751318	-122.59355816570243	4038.9854389756456	1033.2259274815276	-177.5741747547279	4048.3070076844874	1054.050033211032	-185.53150937447515	4067.2216756662874	1059.5236680667597	-179.55959728917753	4081.834961724363	1059.8449001554557	-174.66374923401577	4095.2502495097538	1057.1265728869264	-169.95179885620274	4054.0327546460994	1044.148033551208	-184.92820436981913	4083.6546014665446	1044.8599733339297	-187.76574590527426	4105.846763750623	1041.6146618364214	-182.75046189545284	4117.0374708609925	1040.3319143410847	-176.17585003655802	4124.542096614407	1039.7658716212288	-168.40245423238497	4056.996334916777	1034.4515582670788	-182.4926553400951	4087.4911443879255	1029.902204710839	-183.94491102207508	4112.004131474775	1025.0745140665997	-178.13294156256387	4125.647789722434	1022.9096172254859	-170.03808335215635	4133.928468613814	1021.9901672011242	-161.45342061152223	4058.3334875840123	1027.5981392611577	-180.7662535219144	4086.8215964223614	1017.6165260576106	-180.76433406780055	4108.442645384339	1012.1008523150177	-175.34877208583512	4121.73868155834	1009.3181005704918	-167.3548561300141	4129.588883438491	1008.1244624103941	-159.19506681245016	4059.0220552852234	1019.5579909934877	-178.16865592098029	4085.5828592513617	1005.497786661231	-176.7902956508179	4103.170473060458	999.0840725013489	-171.90746445823208	4113.00133979772	996.0883228177868	-165.81242410250363	4120.031697665016	994.4750108253845	-158.43210097662237
167	1.383	4081.203	893.81699	129.612	4133.2006998404395	879.5023144361775	85.9011192069565	4032.0950616648774	476.4505873929522	48.57610665903404	4079.862468865108	115.70557098063568	-23.008127657233803	3989.266288853375	31.294799203752547	117.43650481345578	4040.1450879852937	881.6292894666457	187.55617973537554	3932.7505654371853	493.2678058409311	299.83556093182546	3817.280443954063	90.89361090008876	427.8834013479219	3675.9502760753103	35.028979109712616	314.1234590522317	4033.157937507354	1016.0200007061031	73.48774207110795	3980.4427984820823	1081.1887247217214	24.54773638628982	3921.3859014325944	1143.7696357385782	-28.51234082991152	3859.4277120618785	1195.1458425323501	-82.70314982541886	3791.7260853218672	1250.8980843070706	-138.08762918272578	3722.2361644756384	1296.3851162143733	-181.30125293127503	3582.9383057012924	1373.062277424324	-190.67468684281693	3827.463176968158	1236.560143850325	-132.18715670195093	3875.8447327881013	1251.7477447086578	-176.34741945159777	3973.9457662727013	1097.0345078731946	-194.66570146610442	4074.760069834419	1033.3788418914537	-244.64959392286502	4083.88144484749	1053.5127055337073	-256.0990836630715	4085.9533408090956	1059.25647759124	-274.32707078612407	4088.1759912136704	1059.7066485949351	-286.5168969485375	4090.695996806683	1057.0451799414275	-296.2477422371111	4088.6830268303197	1043.2028948984264	-254.67554667402192	4107.788648583978	1042.590287907564	-271.0163414109765	4114.837801368691	1039.1300218518627	-285.9495420451573	4113.6738173178055	1038.2525952544752	-296.3311648719059	4108.969147622125	1038.3855809972654	-305.6644403187808	4089.84200787293	1033.425145195893	-252.90488373429	4109.105732944544	1027.5397002273517	-267.8844305783099	4116.880908638924	1022.471909403556	-283.89733079644935	4115.516492736083	1020.7933579702739	-296.2869661695532	4110.388115835804	1020.6374773577055	-306.4334274922674	4090.2456069748164	1026.5402765924339	-251.2007088392287	4108.071713305261	1015.3110589641021	-263.04008980550196	4114.90241474465	1009.5826345824095	-276.68535801807326	4113.614899633344	1007.2671591312525	-288.47064929649684	4108.806468725578	1006.7905936290865	-297.93245990708846	4089.5875091727034	1018.5639162885522	-249.0483803437273	4105.780654758145	1003.3720520176415	-258.4642686778134	4111.256134951895	996.7880514056376	-268.85334351748173	4110.319777465329	994.133172340168	-277.1895574328402	4106.061876512004	993.155090520592	-285.42153269300474	3800.809623316547	1227.1357803298802	-107.25134490172192	3762.9101040055693	1180.5009736115817	-70.16333890677494	3903.47198117222	1085.693355919168	-119.82623638061317	4037.1136908302124	1034.9271667367052	-172.9814153940134	4045.9955527927964	1055.5348837668728	-180.81997135374462	4064.523490808236	1060.8755670597373	-175.0457912376297	4078.8915650064564	1061.1235596760064	-170.27813840299962	4092.1230539121425	1058.3607263994472	-165.66492819818046	4051.7625694227354	1045.6768284620325	-180.13366545389587	4080.8857150259896	1046.2210552615784	-182.7922964617146	4102.756499989195	1042.8887190985579	-177.8556520433553	4113.7805576733435	1041.56541685246	-171.4630626065564	4121.169608165015	1040.974946220489	-163.93012701238743	4054.810294888571	1036.0402236151133	-177.688147552507	4084.8641930498557	1031.3596637861428	-178.96044981103483	4109.039246332853	1026.4454920373303	-173.2338098710207	4122.487967361518	1024.235737289129	-165.3583242944447	4130.645161334156	1023.2915372183814	-157.03665638148553	4056.2194202028	1029.233175014758	-175.95710741818365	4084.3742696603476	1019.1736168462274	-175.7835665056257	4105.714505455479	1013.5914437326858	-170.4421943104884	4118.829801765347	1010.7701376095166	-162.65978258996074	4126.567352754812	1009.5554619690764	-154.7472288783502	4057.0069816940095	1021.2529702375849	-173.3763674728991	4083.322311544589	1007.1574781302229	-171.84368172182505	4100.707937651343	1000.7047044714286	-167.02073545819823	4110.418038754362	997.6876977150594	-161.0801979944422	4117.354975085798	996.0597009145637	-153.9190182634067
